<svg width="1440" height="2004" viewBox="0 0 1440 2004" fill="none" xmlns="http://www.w3.org/2000/svg">
<rect width="1440" height="2004" fill="#E5E5E5"/>
<rect width="1440" height="2004" fill="#1B1B1B"/>
<g clip-path="url(#clip0_0_1)">
<path d="M1440 0H0V2004H1440V0Z" fill="#6600FF"/>
<g filter="url(#filter0_f_0_1)">
<path d="M721.6 2014.02C1037.07 2014.02 1292.8 1480.17 1292.8 821.64C1292.8 163.107 1037.07 -370.74 721.6 -370.74C406.135 -370.74 150.4 163.107 150.4 821.64C150.4 1480.17 406.135 2014.02 721.6 2014.02Z" fill="#6600FF"/>
<path d="M171.2 2089.25C486.665 2089.25 742.4 1555.4 742.4 896.868C742.4 238.335 486.665 -295.512 171.2 -295.512C-144.265 -295.512 -400 238.335 -400 896.868C-400 1555.4 -144.265 2089.25 171.2 2089.25Z" fill="#00B93F"/>
<path d="M1043.2 2568.72C1358.67 2568.72 1614.4 2034.87 1614.4 1376.34C1614.4 717.808 1358.67 183.961 1043.2 183.961C727.735 183.961 472 717.808 472 1376.34C472 2034.87 727.735 2568.72 1043.2 2568.72Z" fill="#00CC99"/>
<path d="M1433.6 2595.18C1749.07 2595.18 2004.8 2061.33 2004.8 1402.8C2004.8 744.267 1749.07 210.42 1433.6 210.42C1118.13 210.42 862.4 744.267 862.4 1402.8C862.4 2061.33 1118.13 2595.18 1433.6 2595.18Z" fill="#00CC99"/>
<path d="M171.2 2788.9C486.665 2788.9 742.4 2255.05 742.4 1596.52C742.4 937.987 486.665 404.14 171.2 404.14C-144.265 404.14 -400 937.987 -400 1596.52C-400 2255.05 -144.265 2788.9 171.2 2788.9Z" fill="#0075FF"/>
<g clip-path="url(#clip1_0_1)">
<path d="M1440 3.05176e-05H0V2004H1440V3.05176e-05Z" fill="black"/>
<path d="M1483 755.414C1424.02 742.11 1364.97 728.953 1334.01 659.802C1303.05 590.651 1300.11 465.654 1259.71 402.205C1219.3 338.756 1141.36 337.001 1103.98 277.061C1066.52 216.975 1069.61 98.7022 1072.71 -19.5703H1483V755.414Z" fill="#923CFA"/>
<path d="M-29 1281.86C20.6694 1364.18 70.3388 1446.5 104.35 1515.08C138.445 1583.81 156.797 1638.8 207.898 1674.83C259.083 1710.85 342.931 1727.92 383.256 1798.86C423.665 1869.97 420.466 1994.64 417.267 2119.46H-29V1281.86Z" fill="#923CFA"/>
</g>
</g>
</g>
<defs>
<filter id="filter0_f_0_1" x="-722" y="-692.74" width="3048.8" height="3803.64" filterUnits="userSpaceOnUse" color-interpolation-filters="sRGB">
<feFlood flood-opacity="0" result="BackgroundImageFix"/>
<feBlend mode="normal" in="SourceGraphic" in2="BackgroundImageFix" result="shape"/>
<feGaussianBlur stdDeviation="161" result="effect1_foregroundBlur_0_1"/>
</filter>
<clipPath id="clip0_0_1">
<rect width="1440" height="2004" fill="white"/>
</clipPath>
<clipPath id="clip1_0_1">
<rect width="1440" height="2004" fill="white"/>
</clipPath>
</defs>
</svg>
